<svg width="100" height="100" viewBox="0 0 100 100" fill="none" xmlns="http://www.w3.org/2000/svg">
<path fill-rule="evenodd" clip-rule="evenodd" d="M14 0C6.26801 0 0 6.26801 0 14V86C0 93.732 6.26801 100 14 100H86C93.732 100 100 93.732 100 86V14C100 6.26801 93.732 0 86 0H14ZM22.0435 35.5415C24.8443 30.6901 31.8706 28.9976 40.7562 30.6157V30.6147C40.9936 30.6586 41.2039 30.7947 41.3413 30.9932C41.4786 31.1916 41.5319 31.4364 41.4894 31.674C41.4454 31.9113 41.3094 32.1216 41.1109 32.259C40.9124 32.3964 40.6677 32.4496 40.4301 32.4071C32.2148 30.9111 25.9588 32.422 23.6213 36.451C21.9086 39.4186 22.4239 43.5591 25.0727 48.181C25.1924 48.3908 25.2242 48.6395 25.161 48.8726C25.0979 49.1058 24.9451 49.3044 24.7359 49.4252C24.5261 49.5449 24.2774 49.5767 24.0443 49.5135C23.8111 49.4504 23.6124 49.2976 23.4917 49.0884C20.5507 43.9597 19.9536 39.1604 22.0435 35.5415ZM41.6976 66.0384C36.3734 62.9646 31.7059 59.2607 28.1125 55.3125L28.1008 55.3221C27.9386 55.143 27.8539 54.907 27.8653 54.6657C27.8766 54.4244 27.9831 54.1974 28.1614 54.0343C28.3404 53.8721 28.5764 53.7874 28.8178 53.7988C29.0591 53.8101 29.2861 53.9166 29.4491 54.0949C32.9129 57.9007 37.4338 61.4878 42.5976 64.4691C54.4084 71.2821 66.8351 73.3101 73.1982 69.8774C72.8374 69.2424 72.6313 68.5067 72.6313 67.7204C72.6313 65.3 74.5948 63.3588 77.0034 63.3588C79.4121 63.3588 81.365 65.3117 81.365 67.7204H81.3544C81.3544 70.1291 79.4015 72.0819 76.9928 72.0819C76.0427 72.0819 75.1635 71.7799 74.4471 71.2655C67.4963 75.3537 54.2106 73.2575 41.6976 66.0384ZM77.982 35.5893C80.7764 40.4279 78.7449 47.3406 72.9266 54.2149L72.9245 54.2181C72.7679 54.402 72.5449 54.5164 72.3041 54.5363C72.0634 54.5562 71.8246 54.48 71.6399 54.3244C71.456 54.1678 71.3416 53.9447 71.3217 53.704C71.3018 53.4633 71.378 53.2245 71.5337 53.0398C76.9121 46.6861 78.7236 40.5214 76.4021 36.5009C74.718 33.5822 70.9833 31.963 65.7771 31.895C65.5356 31.8911 65.3056 31.7918 65.1372 31.6188C64.9687 31.4458 64.8756 31.2131 64.8782 30.9717C64.8821 30.7303 64.9814 30.5002 65.1544 30.3318C65.3274 30.1634 65.5601 30.0703 65.8015 30.0728C71.5794 30.1472 75.9261 32.0278 77.982 35.5893ZM41.7348 37.3531C47.1121 34.2484 52.7136 32.0438 57.973 30.9175L57.9719 30.9047C58.2082 30.8549 58.4545 30.9006 58.6572 31.0318C58.8598 31.1629 59.0023 31.369 59.0536 31.6049C59.1034 31.8412 59.0578 32.0875 58.9266 32.2902C58.7954 32.4928 58.5893 32.6353 58.3534 32.6866C53.2831 33.7735 47.8506 35.907 42.6443 38.9192C30.45 45.9714 22.3873 56.1191 22.6681 63.3712C22.7767 63.363 22.8859 63.3588 22.9955 63.3588C25.4042 63.3588 27.3571 65.3117 27.3571 67.7204C27.3571 70.1291 25.4042 72.0819 22.9955 72.0819C21.8391 72.0818 20.7301 71.6224 19.9123 70.8048C19.0943 69.987 18.6346 68.8777 18.6345 67.7209C18.6343 66.5641 19.0937 65.4547 19.9116 64.6367C20.2001 64.348 20.525 64.104 20.8755 63.909C20.2177 55.7677 28.7859 44.8283 41.7348 37.3531ZM36.4159 70.2746C39.4579 78.7693 44.4346 84 50.0319 84C54.114 84 57.8901 81.2162 60.8343 76.3181C60.9582 76.1108 60.995 75.8629 60.9367 75.6286C60.8783 75.3943 60.7296 75.1926 60.523 75.0676C60.3157 74.9437 60.0678 74.9069 59.8335 74.9652C59.5992 75.0235 59.3975 75.1723 59.2724 75.3789C56.6162 79.7808 53.3756 82.1757 50.0319 82.1757C45.3834 82.1757 40.9443 77.5007 38.1319 69.6594C38.0498 69.4323 37.8811 69.2469 37.6627 69.1437C37.4443 69.0406 37.1939 69.0281 36.9663 69.1091C36.7392 69.1912 36.5537 69.3598 36.4506 69.5783C36.3475 69.7967 36.335 70.0471 36.4159 70.2746ZM64.2035 68.6129C65.7781 63.5798 66.6239 57.7754 66.6239 51.7244C66.6239 37.0156 61.6076 24.2838 54.3889 20.5504C54.3919 20.4843 54.3934 20.4178 54.3934 20.3509C54.3934 17.9422 52.4395 16 50.0319 16C47.6242 16 45.6703 17.9529 45.6703 20.3616C45.6703 22.7703 47.6232 24.7125 50.0319 24.7125C51.7158 24.7125 53.177 23.758 53.9038 22.3605C60.1963 25.9513 64.8006 37.8727 64.8006 51.7255C64.8006 57.5947 63.9825 63.2175 62.4631 68.0699C62.3915 68.3006 62.4141 68.5502 62.526 68.7642C62.6379 68.9783 62.83 69.1393 63.0603 69.2121C63.2909 69.2837 63.5405 69.2611 63.7546 69.1492C63.9686 69.0373 64.1296 68.8453 64.2024 68.615L64.2035 68.6129ZM49.4611 54.835C49.8708 54.9075 50.2908 54.8983 50.697 54.8078C51.1043 54.7226 51.4907 54.5576 51.834 54.3225C52.1772 54.0873 52.4706 53.7866 52.6972 53.4376C52.9238 53.0886 53.0792 52.6982 53.1543 52.289C53.2295 51.8797 53.2229 51.4596 53.1351 51.0529C53.0472 50.6462 52.8798 50.2608 52.6425 49.9191C52.4051 49.5773 52.1025 49.2859 51.7521 49.0615C51.4016 48.8371 51.0103 48.6843 50.6005 48.6118C50.1908 48.5393 49.7708 48.5485 49.3646 48.6389C48.9573 48.7242 48.5709 48.8891 48.2277 49.1243C47.8844 49.3594 47.591 49.6602 47.3644 50.0092C47.1378 50.3582 46.9824 50.7485 46.9073 51.1578C46.8322 51.567 46.8387 51.9871 46.9265 52.3938C47.0144 52.8006 47.1818 53.1859 47.4192 53.5277C47.6565 53.8694 47.9591 54.1609 48.3096 54.3853C48.66 54.6096 49.0513 54.7625 49.4611 54.835Z" fill="#493223"/>
</svg>
