<svg width="100" height="100" viewBox="0 0 100 100" fill="none" xmlns="http://www.w3.org/2000/svg">
<path fill-rule="evenodd" clip-rule="evenodd" d="M14 0C6.26801 0 0 6.26801 0 14V86C0 93.732 6.26801 100 14 100H37.4864L37.3125 85.076C23.1895 88.15 20.2533 79.0875 20.2533 79.0875C17.955 73.2222 14.62 71.6635 14.62 71.6635C10.0162 68.5098 14.968 68.575 14.968 68.575C20.0648 68.9375 22.7473 73.8095 22.7473 73.8095C27.2713 81.567 34.6155 79.3267 37.5155 78.029C37.9723 74.7447 39.2845 72.5117 40.7345 71.243C29.4608 69.9597 17.6143 65.6097 17.6143 46.1652C17.6143 40.619 19.6008 36.095 22.8488 32.5425C22.3195 31.2665 20.5867 26.1045 23.3345 19.1155C23.3345 19.1155 27.5975 17.7525 37.2907 24.3138C41.3507 23.19 45.6862 22.6317 50 22.61C54.3138 22.6317 58.6492 23.19 62.7165 24.3065C72.4025 17.7453 76.6582 19.1082 76.6582 19.1082C79.4205 26.0972 77.6805 31.2592 77.1585 32.5425C80.4065 36.095 82.3857 40.619 82.3857 46.1652C82.3857 65.6605 70.5103 69.9525 59.2003 71.2067C61.0273 72.78 62.6875 75.8685 62.6875 80.6027V100H86C93.732 100 100 93.732 100 86V14C100 6.26801 93.732 0 86 0H14Z" fill="#493223"/>
</svg>
