<svg width="100" height="102" viewBox="0 0 100 102" fill="none" xmlns="http://www.w3.org/2000/svg">
<path fill-rule="evenodd" clip-rule="evenodd" d="M14 0C6.26801 0 0 6.26801 0 14V88C0 95.732 6.26801 102 14 102H86C93.732 102 100 95.732 100 88V14C100 6.26801 93.732 0 86 0H14ZM27.9078 78.1594L23 22.5H77L72.0922 78.1594L49.9297 85.5L27.9078 78.1594ZM40.4938 40.4859H66.3406L66.9594 33.7781H33.0547L34.8547 54.2531H58.325L57.4813 63L49.9297 65.0391L42.4062 63L41.9141 57.6422H35.2062L36.05 68.3016L49.9297 72.1406H50.0844V72.0984L63.8516 68.3016L65.7641 47.4328H41.0703L40.4938 40.4859Z" fill="#493223"/>
</svg>
