<svg width="100" height="102" viewBox="0 0 100 102" fill="none" xmlns="http://www.w3.org/2000/svg">
<path fill-rule="evenodd" clip-rule="evenodd" d="M14 0C6.26802 0 0 6.26801 0 14V88C0 95.732 6.26801 102 14 102H86C93.732 102 100 95.732 100 88V14C100 6.26802 93.732 0 86 0H14ZM44.2289 93.8818C51.8055 93.8818 57.0055 89.8784 57.0055 81.1074V52.199H48.4539V80.9867C48.4539 85.2314 46.6664 86.3177 43.8633 86.3177C40.918 86.3177 39.6992 84.3261 38.3586 81.9724L31.3914 86.1367C33.4227 90.3814 37.3836 93.8818 44.2289 93.8818ZM61.657 85.2314C64.1555 90.14 69.2945 93.8818 77.2367 93.8818C85.3414 93.8818 91.3945 89.6974 91.3945 82.0931C91.3945 75.0119 87.3117 71.8535 80.0399 68.7755L77.907 67.8703C74.2305 66.281 72.6461 65.255 72.6461 62.7203C72.6461 60.6683 74.2305 59.0992 76.7289 59.0992C79.1867 59.0992 80.7711 60.1252 82.2336 62.7203L88.8961 58.4957C86.093 53.5871 82.193 51.7162 76.7492 51.7162C69.132 51.7162 64.2367 56.5443 64.2367 62.9013C64.2367 69.8015 68.3195 73.0806 74.4945 75.6757L76.6273 76.581C80.5477 78.291 82.8633 79.3169 82.8633 82.2138C82.8633 84.648 80.5883 86.3982 77.0539 86.3982C72.8492 86.3982 70.4523 84.2054 68.6242 81.2482L61.657 85.2314Z" fill="#493223"/>
</svg>
