<svg width="100" height="100" viewBox="0 0 100 100" fill="none" xmlns="http://www.w3.org/2000/svg">
<path fill-rule="evenodd" clip-rule="evenodd" d="M14 0C6.26801 0 0 6.26801 0 14V86C0 93.732 6.26801 100 14 100H86C93.732 100 100 93.732 100 86V14C100 6.26801 93.732 0 86 0H14ZM24.6667 34C28.32 34 31.28 31.016 31.28 27.3333C31.28 23.6533 28.32 20.6667 24.6667 20.6667C21.0133 20.6667 18.0533 23.6533 18.0533 27.3333C18.0533 31.016 21.0133 34 24.6667 34ZM18 39.3333H31.3333V82H18V39.3333ZM39.3707 39.3333H52.6187V45.08C58.208 34.736 82 33.9707 82 54.984V82H68.6987V59.6027C68.6987 46.1307 52.6213 47.1493 52.6213 59.6027V82H39.3707V39.3333Z" fill="#493223"/>
</svg>
