<svg width="100" height="100" viewBox="0 0 100 100" fill="none" xmlns="http://www.w3.org/2000/svg">
<path fill-rule="evenodd" clip-rule="evenodd" d="M14 0C6.26802 0 0 6.26801 0 14V86C0 93.732 6.26801 100 14 100H86C93.732 100 100 93.732 100 86V14C100 6.26801 93.732 0 86 0H14ZM77.3163 24.8292L78.6912 20.3233L78.789 20.2239C78.8446 20.0571 78.731 20.0595 78.6173 20.062L78.5935 20.0624C78.584 20.0626 78.5745 20.0626 78.5653 20.0625C77.9545 20.7356 77.1586 21.084 76.2617 21.2803C75.4376 21.4203 74.6149 21.3623 73.7692 21.3026C73.7089 21.2983 73.6484 21.294 73.5878 21.2898C73.5414 21.2866 73.4948 21.2834 73.4482 21.2803C68.1442 20.8988 62.9336 21.6343 57.8166 23.1675C50.9572 25.2584 44.9323 28.8256 39.5347 33.5263C37.5539 35.188 31.8628 42.35 30.5826 44.7783C27.2263 51.2672 25.915 58.2054 25.9792 65.4297C26.0122 67.1868 26.1699 68.9438 26.3918 70.7027C26.3386 70.7574 26.2855 70.8196 26.2323 70.9246C25.1135 73.1952 23.5454 75.0787 21.8837 76.9348L21.2418 77.5767C20.8596 77.9589 20.7003 78.1027 20.6837 78.2614C20.667 78.4212 20.7946 78.596 20.985 79.044C21.0332 79.1492 21.0896 79.2514 21.1468 79.355C21.281 79.5983 21.4193 79.8489 21.4655 80.1628C21.6581 80.3553 21.8489 80.2269 21.9772 80.0985L22.9365 78.9486L25.8783 76.0068C26.2762 75.5574 26.7577 75.1967 27.2199 74.8504C27.318 74.7769 27.4152 74.7041 27.5106 74.6312H27.5143C28.3117 73.9621 29.2723 73.7053 30.2622 73.4816C30.2767 73.4975 30.2918 73.5133 30.3075 73.529C32.0719 73.8187 33.8583 73.9471 35.6483 73.9471C46.7865 73.7692 56.3127 69.6793 64.1129 61.6223C66.7338 58.939 68.9402 55.9 70.7302 52.5767C73.6372 47.113 75.717 41.4531 76.5478 35.3145C76.9 32.7248 77.0284 30.1058 77.0283 27.4831C77.0265 26.5862 77.1255 25.7242 77.3163 24.8292Z" fill="#493223"/>
</svg>
