<svg width="100" height="100" viewBox="0 0 100 100" fill="none" xmlns="http://www.w3.org/2000/svg">
<path fill-rule="evenodd" clip-rule="evenodd" d="M81.3686 100H86C93.732 100 100 93.732 100 86V14C100 6.26801 93.732 0 86 0H14C6.26801 0 0 6.26801 0 14V86C0 93.732 6.26801 100 14 100H73.4382L62.7576 85.5741L48.5298 64.5201C40.7011 52.9452 34.2604 43.48 34.2049 43.48C34.1494 43.4661 34.0938 52.8203 34.0661 64.2425C34.0244 84.2417 34.0106 85.0467 33.7607 85.5186C33.3998 86.1986 33.1222 86.4762 32.5392 86.7815C32.095 87.0036 31.7064 87.0452 29.6104 87.0452H27.209L26.5705 86.6427C26.1541 86.379 25.8487 86.0321 25.6405 85.6296L25.349 85.005L25.3767 57.1782L25.4184 29.3376L25.8487 28.7963C26.0708 28.5048 26.5427 28.1301 26.8759 27.9497C27.445 27.6721 27.6671 27.6444 30.0684 27.6444C32.9001 27.6444 33.372 27.7554 34.1077 28.5604C34.3159 28.7824 42.0197 40.385 51.2366 54.3609C60.4534 68.3367 73.0571 87.4199 79.2479 96.7881L81.3686 100ZM77.8182 27.6166C77.6239 26.9504 77.0825 26.312 76.4162 25.9789C75.9582 25.7291 75.5973 25.7013 73.5429 25.7013C71.3636 25.7013 71.1554 25.7291 70.5863 26.0206C69.92 26.3814 69.4342 26.9921 69.2121 27.7693C69.1288 28.0885 69.0733 34.6809 69.0733 46.4084V64.5478L73.4874 71.2929L77.8876 78.0379L77.9292 53.084C77.957 35.694 77.9292 27.9774 77.8182 27.6166Z" fill="#493223"/>
</svg>
