<svg width="100" height="100" viewBox="0 0 100 100" fill="none" xmlns="http://www.w3.org/2000/svg">
<path fill-rule="evenodd" clip-rule="evenodd" d="M0 14C0 6.26801 6.26801 0 14 0H86C93.732 0 100 6.26801 100 14V86C100 93.732 93.732 100 86 100H14C6.26801 100 0 93.732 0 86V14ZM46.8496 12.9648C48.7529 11.8909 51.2318 11.886 53.1335 12.9648C57.0958 15.172 61.0587 17.3778 65.0216 19.5836L65.0254 19.5857L65.0282 19.5872C70.6311 22.7059 76.2341 25.8246 81.8354 28.9472C83.6345 29.9462 84.8379 31.9201 84.8196 33.9637V66.026C84.833 68.1543 83.5106 70.1753 81.6126 71.1517C76.5955 73.9402 71.5798 76.7305 66.5643 79.5206L66.5084 79.5518C62.0101 82.0542 57.5119 84.5566 53.0129 87.0575C51.0703 88.1525 48.5415 88.0682 46.6596 86.8835C45.1047 85.9949 43.5484 85.1087 41.9922 84.2225L41.9893 84.2209C40.6852 83.4783 39.3813 82.7358 38.0783 81.992C37.9564 81.9203 37.8314 81.8518 37.706 81.7831L37.7056 81.7828C37.2298 81.5221 36.7494 81.2588 36.423 80.8169C36.6895 80.4628 37.1096 80.3352 37.5232 80.2096L37.5233 80.2095C37.6756 80.1633 37.8269 80.1173 37.9695 80.0604C39.0905 79.709 40.1257 79.1578 41.1559 78.6092L41.355 78.5032C41.6322 78.3162 41.9706 78.3879 42.2364 78.5553C43.2805 79.1454 44.3207 79.743 45.361 80.3405L45.3614 80.3408L45.3629 80.3416C46.7575 81.1427 48.1521 81.9438 49.5566 82.7274C50.0125 82.9869 50.4734 82.7201 50.8804 82.4846C50.9153 82.4643 50.9499 82.4443 50.9841 82.4249C51.0086 82.4109 51.0329 82.3973 51.0569 82.3841C55.5189 79.898 59.9836 77.4163 64.4482 74.9347C69.3461 72.2122 74.244 69.4898 79.1382 66.7615C79.4849 66.5971 79.6765 66.2344 79.6484 65.86C79.6525 59.1294 79.6521 52.398 79.6516 45.6668V45.5664C79.6513 41.7535 79.6511 37.9407 79.6516 34.1281C79.6913 33.7034 79.442 33.3129 79.0524 33.1391C73.751 30.1958 68.4512 27.2501 63.1515 24.3044L63.1426 24.2995L63.1281 24.2914C58.9362 21.9615 54.7444 19.6316 50.552 17.303C50.3873 17.1915 50.1924 17.1316 49.9926 17.1313C49.7929 17.131 49.5977 17.1903 49.4327 17.3014C45.2184 19.6429 41.005 21.9863 36.7918 24.3296L36.788 24.3317C31.5043 27.2704 26.2207 30.2091 20.9356 33.1436C20.5474 33.3177 20.2869 33.7018 20.3331 34.1281C20.3342 41.1791 20.3338 48.231 20.3334 55.283V55.2832L20.3334 55.3921C20.3332 58.8819 20.3331 62.3718 20.3331 65.8616C20.3166 66.0443 20.3573 66.2275 20.4497 66.3867C20.542 66.5458 20.6817 66.6733 20.8497 66.7518C22.5259 67.6888 24.2034 68.6215 25.881 69.5541L25.8822 69.5548C26.7417 70.0326 27.6012 70.5105 28.4606 70.9889C29.8898 71.7473 31.6446 72.1979 33.2193 71.6169C34.6088 71.1256 35.5829 69.7277 35.5564 68.2731C35.5626 63.2686 35.5614 58.2636 35.5602 53.2589V53.2512V53.2511C35.5589 47.7431 35.5576 42.2353 35.5662 36.7283C35.5315 36.2615 35.9806 35.8759 36.441 35.9198C37.6592 35.9117 38.879 35.9036 40.0972 35.923C40.6057 35.9117 40.9556 36.4143 40.8927 36.8846C40.8909 40.7831 40.8922 44.6816 40.8935 48.58C40.8957 55.2632 40.898 61.9464 40.8845 68.6294C40.8878 71.4495 39.7125 74.5181 37.0665 75.8979C33.8068 77.5627 29.7777 77.2096 26.5573 75.6133C24.8212 74.7591 23.1345 73.809 21.4476 72.8588L21.4475 72.8588L21.4472 72.8586C20.4254 72.2831 19.4035 71.7074 18.3705 71.1531C16.4675 70.182 15.1517 68.153 15.1651 66.0263V33.9637C15.1452 31.8778 16.3964 29.8681 18.2516 28.8836C25.4386 24.8851 32.6247 20.8843 39.8106 16.8836L39.8134 16.8821L46.8496 12.9648ZM67.5181 37.0377C63.7763 35.0183 59.3249 34.9108 55.1669 35.1746V35.1743C52.163 35.4738 49.0035 36.3103 46.8149 38.4825C44.5702 40.6663 44.0816 44.1925 45.1478 47.0433C45.9119 49.0575 47.8351 50.3676 49.824 51.0605C52.386 51.9728 55.0768 52.2549 57.7684 52.5371C60.2235 52.7945 62.6794 53.052 65.0391 53.7879C66.003 54.1102 67.1255 54.6031 67.4207 55.6609C67.6933 56.9138 67.3945 58.3702 66.386 59.2407C64.5737 60.6878 62.116 60.7907 59.8695 60.8848C59.7466 60.8899 59.6244 60.895 59.5029 60.9003C59.2655 60.8967 59.0262 60.894 58.7856 60.8914C56.1598 60.8626 53.3701 60.8321 51.1083 59.3935C49.8289 58.536 49.2775 57.0179 49.0533 55.5714C49.0284 55.1206 48.6687 54.7072 48.1834 54.7414C46.9685 54.7268 45.7536 54.7301 44.5387 54.7398C44.1147 54.7039 43.674 55.0082 43.6508 55.4445C43.5535 58.0282 44.5338 60.7052 46.541 62.4233C48.8882 64.4656 52.0523 65.2531 55.0928 65.5948C58.3263 65.9056 61.6306 65.8878 64.8146 65.1879C67.2081 64.6381 69.6078 63.6258 71.2554 61.766C73.2872 59.5059 73.6866 56.1409 72.7754 53.3257C72.0788 51.2252 70.0881 49.8776 68.0531 49.1845C65.2858 48.2272 62.3934 47.8496 59.4996 47.4719C57.2534 47.1787 55.0065 46.8854 52.8166 46.3207C52.7795 46.3092 52.742 46.2976 52.7042 46.286C51.8571 46.0246 50.867 45.719 50.4959 44.8498C50.0848 43.5853 50.4347 42.0152 51.5867 41.2374C53.0873 40.2106 54.9919 40.0594 56.7631 39.9667C56.8265 39.9661 56.89 39.9654 56.9535 39.9648C59.3239 39.9417 61.8273 39.9172 63.9942 40.9867C65.4437 41.719 66.2835 43.2225 66.6301 44.7406C66.6944 45.1867 66.9918 45.6518 67.5036 45.6324C68.329 45.649 69.1546 45.6459 69.9801 45.6428C70.3611 45.6414 70.7421 45.64 71.1231 45.6405C71.5375 45.6699 71.9913 45.4338 72.0723 45.0058C72.0211 41.833 70.4151 38.5852 67.5181 37.0377Z" fill="#493223"/>
</svg>
