<svg width="100" height="102" viewBox="0 0 100 102" fill="none" xmlns="http://www.w3.org/2000/svg">
<path fill-rule="evenodd" clip-rule="evenodd" d="M14 0C6.26801 0 0 6.26801 0 14V88C0 95.732 6.26801 102 14 102H86C93.732 102 100 95.732 100 88V14C100 6.26801 93.732 0 86 0H14ZM70.3164 39.5377C71.0863 39.7658 71.8563 40.0082 72.6262 40.2648C80.3824 42.9311 86 47.1229 86 51.443C86 55.9627 80.0402 60.3684 71.8135 63.0916L71.813 63.0917C71.3712 63.2343 70.9293 63.3768 70.4732 63.5051C70.6301 64.1609 70.7727 64.8026 70.901 65.4299C72.5264 73.6424 71.2717 80.3863 67.4221 82.6106C63.7008 84.7635 57.6697 82.6391 51.5674 77.3922C50.9115 76.8219 50.2557 76.2373 49.6283 75.6242C49.1293 76.109 48.6303 76.5652 48.1312 77.0072C41.8293 82.525 35.3563 84.8063 31.5066 82.582C27.7711 80.4291 26.602 74.1557 28.099 66.2426C28.2701 65.3729 28.4555 64.5316 28.6693 63.6762C28.0135 63.4908 27.3719 63.277 26.7303 63.0631C18.8172 60.3541 13 55.8914 13 51.443C13 47.1371 18.4607 42.9738 26.0744 40.3361C26.9156 40.0367 27.8139 39.7516 28.7264 39.4949C28.5268 38.6965 28.3557 37.9123 28.1988 37.1139C26.6305 29.0725 27.7426 22.6422 31.4781 20.475C35.3705 18.208 41.8721 20.6318 48.3594 26.392C48.7586 26.7484 49.1578 27.1191 49.5428 27.4898C50.1131 26.9338 50.7119 26.3777 51.325 25.8502C57.5129 20.4607 63.6295 18.2223 67.3793 20.3752C71.2717 22.6279 72.4266 29.4574 70.6729 37.9551C70.5588 38.4826 70.4447 39.0102 70.3164 39.5377ZM65.8395 23.0271C63.5867 21.7297 58.6393 23.5404 53.3354 28.16C52.765 28.659 52.2232 29.158 51.6672 29.6855C53.8629 32.0666 55.8875 34.6045 57.741 37.2565C60.9633 37.5416 64.1713 38.0549 67.3365 38.7678C67.4648 38.2973 67.5646 37.8268 67.6645 37.342C69.1758 29.9992 68.249 24.4102 65.8395 23.0271ZM39.0918 62.5356C38.3076 61.3236 37.5662 60.0832 36.8391 58.8428C36.1262 57.6166 35.4561 56.3762 34.8002 55.1215C33.8877 57.2887 33.1035 59.4131 32.4762 61.4662C34.6576 61.9367 36.8676 62.2932 39.0918 62.5356ZM39.0205 40.5785C36.7535 40.8637 34.5721 41.2344 32.5189 41.6906C33.1463 43.701 33.902 45.7826 34.8002 47.907C35.4418 46.6523 36.1262 45.4119 36.8248 44.2C37.5234 42.9738 38.2648 41.7619 39.0205 40.5785ZM39.4768 45.7256C38.3932 47.6219 37.3666 49.5467 36.4256 51.5143C37.3809 53.4818 38.3932 55.4066 39.491 57.3029C40.5889 59.1992 41.758 61.0527 42.9984 62.8635C45.0943 62.9918 47.2615 63.0631 49.5 63.0631C51.7385 63.0631 53.9484 62.9918 56.0729 62.835C57.2848 61.01 58.4396 59.1707 59.5232 57.2744C60.6211 55.3639 61.6477 53.4248 62.6029 51.4572C61.6334 49.5039 60.6068 47.5791 59.509 45.6971C58.4111 43.815 57.2562 41.9758 56.0443 40.1793C53.9199 40.0225 51.7242 39.9369 49.5 39.9369C47.2758 39.9369 45.0943 40.0225 42.9557 40.1793C41.7295 41.99 40.5604 43.8293 39.4768 45.7256ZM64.2568 55.0074C63.5867 56.2906 62.9023 57.5596 62.1752 58.8143C61.4623 60.0404 60.7352 61.2666 59.9652 62.4643C62.218 62.2076 64.4564 61.8227 66.6664 61.3236C65.9678 59.1707 65.1693 57.0748 64.2568 55.0074ZM62.1609 44.1715C62.8738 45.3977 63.5582 46.6523 64.2283 47.907C65.098 45.8824 65.868 43.8293 66.5238 41.7191C64.4707 41.2486 62.275 40.8637 59.9795 40.5785C60.7352 41.7619 61.4623 42.9596 62.1609 44.1715ZM53.7488 36.9713C52.4371 35.2033 51.0256 33.4924 49.5285 31.867C48.1027 33.4211 46.6627 35.132 45.2654 36.9713C48.0885 36.843 50.9258 36.843 53.7488 36.9713ZM46.3063 28.6875C40.7029 23.7258 35.3848 21.7297 32.9895 23.127C30.7367 24.4244 29.8527 29.6285 31.193 36.5293C31.3498 37.2707 31.5066 38.0121 31.692 38.7393C34.8572 38.0406 38.051 37.5416 41.2732 37.2565C43.141 34.6045 45.1799 32.0666 47.3898 29.6855C47.2718 29.5766 47.1551 29.4676 47.0395 29.3595C46.7921 29.1283 46.5492 28.9013 46.3063 28.6875ZM27.7283 60.1545C28.3129 60.3541 28.8975 60.5395 29.4963 60.7106C30.4801 57.5738 31.6635 54.4941 33.0322 51.5143C31.6777 48.5772 30.5086 45.5402 29.5391 42.4463C28.7121 42.6887 27.8852 42.9453 27.0725 43.2305C20.5709 45.4975 16.0654 48.8338 16.0654 51.443C16.3363 53.1682 17.3059 54.708 18.7459 55.7061C21.241 57.6879 24.6914 59.1992 27.7283 60.1545ZM38.0795 79.7162C41.0451 78.5471 43.7684 76.8361 46.1209 74.6832C46.5771 74.284 47.0334 73.8563 47.4896 73.4143C45.2797 71.019 43.2123 68.4668 41.3303 65.8006C38.0652 65.5582 34.843 65.0877 31.6492 64.4033C31.4496 65.1875 31.2785 65.9859 31.1217 66.7844C29.8385 73.5568 30.7795 78.5899 33.0465 79.9016C34.6719 80.5432 36.4969 80.4719 38.0795 79.7162ZM45.2939 66.043C46.7055 67.9108 48.1598 69.6502 49.6141 71.2186C51.1111 69.5647 52.5227 67.8395 53.8344 66.0287C52.4086 66.1 50.9686 66.1285 49.5 66.1285C48.0742 66.1285 46.6627 66.1 45.2939 66.043ZM65.8965 79.9586C67.2652 78.8608 68.1207 77.2354 68.249 75.4959C68.7053 72.3307 68.5912 69.1227 67.8926 66.043C67.7785 65.4727 67.6502 64.8881 67.5076 64.3035C64.2996 65.0307 61.0488 65.5297 57.7838 65.8006C55.9588 68.4811 53.9484 71.0332 51.767 73.4428C52.3801 74.0131 52.9789 74.5692 53.5777 75.0824C58.7961 79.5594 63.6295 81.2703 65.8965 79.9586ZM70.8436 60.1689L70.8439 60.1688C77.9586 57.8162 82.9346 54.209 82.9346 51.4145C82.9346 48.8195 78.2723 45.4262 71.6281 43.1449C70.9437 42.9168 70.2309 42.6887 69.4895 42.4748C68.5199 45.5402 67.365 48.5344 65.9963 51.443C67.4078 54.3943 68.634 57.4313 69.632 60.5395C70.0454 60.4254 70.4445 60.2972 70.8436 60.1689ZM56.0301 51.5C56.0301 55.1072 53.1072 58.0301 49.5 58.0301C45.8928 58.0301 42.9699 55.1072 42.9699 51.5C42.9699 47.8928 45.8928 44.9699 49.5 44.9699C53.1072 44.9699 56.0301 47.8928 56.0301 51.5Z" fill="#493223"/>
</svg>
